 <svg 
        viewBox="0 -28 512 512" height="18" width="18" xmlns="http://www.w3.org/2000/svg">
          <path d="M259.503 468.293H44.19c-13.794 0-24.976-11.182-24.976-24.976V189.276l56.047-56.047h153.171l56.047 56.047v254.041c0 13.794-11.182 24.976-24.976 24.976z" fill="#e1e6e9"/><path d="M19.214 313.993v129.324c0 13.793 11.182 24.976 24.976 24.976h215.313c13.793 0 24.976-11.182 24.976-24.976V313.993H19.214z" fill="#f6c358"/><path d="M436.591 409.829h-89.292c-6.897 0-12.488-5.591-12.488-12.488v-100.65l27.726-27.726h58.817l27.726 27.726v100.651c-.001 6.896-5.592 12.487-12.489 12.487z" fill="#e56353"/><path d="M260.148 456.127H43.545c-13.438 0-24.331-10.894-24.331-24.331v12.166c0 13.438 10.894 24.331 24.331 24.331h216.602c13.438 0 24.331-10.894 24.331-24.331v-12.166c.001 13.437-10.893 24.331-24.33 24.331z" fill="#dc8744"/><g fill="#64798a"><path d="M391.945 306.842a6.08 6.08 0 01-6.083-6.083c0-31.852-10.704-79.523-28.62-104.157-19.888-27.349-30.705-56.439-32.149-86.455-2.626-54.455-45.782-97.486-98.241-97.961-.35-.006-.701-.006-1.046-.006-21.427 0-38.16 6.029-49.75 17.922-18.926 19.425-18.142 48.128-18.136 48.413l.006 109.664c0 3.362-2.721 6.083-6.083 6.083s-6.083-2.721-6.083-6.083V78.729c-.048-1.176-.927-34.014 21.581-57.116C181.526 7.053 201.759-.443 226.958.02c58.904.535 107.347 48.651 110.287 109.545 1.325 27.605 11.364 54.484 29.832 79.885 20.102 27.64 30.949 77.978 30.949 111.309a6.076 6.076 0 01-6.081 6.083z"/><path d="M180.493 209.783H123.2c-5.967 0-10.803-4.837-10.803-10.803 0-5.967 4.837-10.803 10.803-10.803h57.292c5.967 0 10.803 4.837 10.803 10.803.001 5.966-4.836 10.803-10.802 10.803z"/></g><path d="M410.194 306.842h-36.497c-3.362 0-6.083-2.721-6.083-6.083s2.721-6.083 6.083-6.083h36.497c3.362 0 6.083 2.721 6.083 6.083s-2.721 6.083-6.083 6.083z" fill="#d5d6db"/>
        </svg>